<svg xmlns="http://www.w3.org/2000/svg" width="159" height="40" viewBox="0 0 159 40">
    <g fill="none" fill-rule="evenodd">
        <path fill="#007672" d="M19.358 20.118c2.224 1.89 4.354 3.73 6.531 5.573l.048-.048c-.095-.094-.19-.236-.284-.33-1.799-1.842-3.597-3.73-5.396-5.573-.237-.236-.284-.472-.19-.755C21.11 14.357 22.15 9.728 23.145 5.1c0-.047 0-.094-.094-.141-.947 3.258-1.846 6.517-2.793 9.823C13.49 9.87 6.768 4.959 0 .094 0 .047.047 0 .047 0c1.136.236 2.225.425 3.36.661 4.118.803 8.283 1.606 12.401 2.409 2.367.472 4.733.897 7.147 1.416.237.048.52.237.71.425 5.443 4.723 10.838 9.398 16.281 14.12.095.095.19.19.332.284-.19.095-.332.19-.474.236-4.117 2.126-8.188 4.203-12.305 6.329a5.375 5.375 0 0 0-1.089.708c-5.869 4.44-11.643 8.878-17.417 13.318-.048.047-.142.094-.284.094 3.55-6.612 7.1-13.223 10.649-19.882zm30.811-8.217c-2.366.52-4.685.992-7.099 1.511.473-1.936.9-3.73 1.325-5.525-.047 0-.047 0-.094-.048a1630.824 1630.824 0 0 1-3.881 11.382c-2.556-2.598-5.065-5.1-7.62-7.65a55.907 55.907 0 0 0 2.224-.85c3.03-1.087 6.01-2.22 9.04-3.307.331-.141.568-.094.852.142 1.61 1.322 3.218 2.645 4.828 4.014.142.048.236.19.425.33z"/>
        <g fill="#007672">
            <path d="M62.181 14.927v13.448H59.44V14.927h-4.49v-2.632h11.77v2.632zM68.752 21.292h5.105c-.047-.861-.331-1.483-.757-1.914-.425-.43-.992-.67-1.654-.67-.756 0-1.37.191-1.89.622-.473.43-.757 1.053-.804 1.962m2.694 7.322c-1.654 0-2.93-.526-3.923-1.627-.946-1.1-1.418-2.584-1.418-4.498 0-1.915.472-3.398 1.465-4.499.945-1.1 2.269-1.627 3.923-1.627 1.466 0 2.695.479 3.64 1.388.945.957 1.418 2.297 1.418 4.115 0 .623-.047 1.197-.094 1.675h-7.705c.047.814.33 1.484.85 2.01.52.527 1.135.766 1.891.766 1.04 0 1.844-.383 2.458-1.196l1.702 1.723c-1.087 1.148-2.458 1.77-4.207 1.77M83.169 28.614c-1.607 0-2.836-.526-3.782-1.627-.945-1.1-1.418-2.584-1.418-4.498 0-1.915.473-3.398 1.418-4.499.946-1.1 2.175-1.627 3.782-1.627 2.41 0 3.923 1.1 4.585 3.254l-2.506.862c-.378-1.005-1.04-1.532-1.985-1.532-.803 0-1.418.335-1.89.957-.473.622-.662 1.532-.662 2.632 0 1.101.236 1.963.661 2.585.426.622 1.04.957 1.797.957 1.087 0 1.796-.575 2.127-1.723l2.552.766c-.71 2.345-2.269 3.493-4.68 3.493M89.692 28.327V13.013l2.647-1.245v5.935c.756-.91 1.796-1.388 3.072-1.388 1.23 0 2.174.383 2.978 1.149.756.765 1.134 1.961 1.134 3.636v7.227h-2.647V21.58c0-1.77-.709-2.68-2.174-2.68-1.56 0-2.363.862-2.363 2.633v6.843l-2.647-.048z"/>
        </g>
        <g fill="#373A36">
            <path d="M117.13 27.798h-2.734v-8.26c0-.697.048-1.3.094-1.857-.188.556-.423 1.16-.706 1.903l-3.864 8.492-3.864-8.539a21.81 21.81 0 0 1-.754-1.856c.047.556.094 1.207.094 1.856v8.307h-2.733v-15.64h2.733l4.052 9.143c.19.418.33.789.425 1.16.14-.371.282-.742.424-1.16l4.1-9.142h2.638v15.593h.095zM124.056 25.802a3.49 3.49 0 0 0 2.592-1.114v-1.485c-.66-.325-1.414-.464-2.309-.464-.706 0-1.272.14-1.696.371-.424.232-.66.65-.66 1.16 0 .464.188.836.566 1.114.33.278.848.418 1.507.418zm2.592 1.996v-.929c-.754.789-1.79 1.16-3.063 1.16-1.225 0-2.262-.324-3.015-.974-.755-.65-1.178-1.578-1.178-2.785 0-1.253.423-2.18 1.319-2.784a5.564 5.564 0 0 1 3.204-.974c1.084 0 2.026.185 2.733.603v-.603c0-.743-.188-1.254-.565-1.578-.377-.325-.942-.51-1.697-.51-1.272 0-2.403.37-3.44 1.066l-.8-2.134c1.271-.836 2.78-1.253 4.523-1.253.613 0 1.13.046 1.602.139.471.093.942.278 1.414.557.47.278.848.742 1.131 1.346.282.603.424 1.345.424 2.274v7.332l-2.592.047zM136.402 25.57c.943 0 1.697-.372 2.168-1.114V19.77c-.518-.743-1.272-1.113-2.168-1.113-.848 0-1.46.278-1.932.88-.424.605-.66 1.44-.66 2.6 0 1.067.236 1.902.66 2.552.472.603 1.131.882 1.932.882m-.612 6.682l-1.414-2.088c1.603-.093 2.686-.325 3.299-.742.612-.372.895-.975.895-1.764v-.65c-.613.697-1.508 1.022-2.639 1.022-1.414 0-2.544-.511-3.44-1.532-.895-1.02-1.32-2.506-1.32-4.409 0-1.856.425-3.295 1.32-4.362.896-1.067 2.026-1.578 3.488-1.578 1.083 0 1.931.325 2.591.975v-.696h2.639v10.255c0 1.903-.424 3.249-1.225 4.084-.801.835-2.215 1.346-4.194 1.485M143.848 27.797h2.639v-11.37h-2.64v11.37zm2.45-13.365c-.283.325-.66.464-1.13.464-.425 0-.802-.139-1.132-.464-.33-.325-.471-.65-.471-1.113 0-.418.141-.79.471-1.114.33-.279.66-.464 1.131-.464.424 0 .801.139 1.131.464.283.278.471.65.471 1.114a1.973 1.973 0 0 1-.47 1.113zM153.696 28.076c-1.602 0-2.827-.51-3.77-1.578-.942-1.067-1.413-2.506-1.413-4.362 0-1.856.471-3.295 1.413-4.362.943-1.068 2.168-1.578 3.77-1.578 2.403 0 3.911 1.067 4.571 3.155l-2.497.836c-.377-.975-1.037-1.485-1.98-1.485-.8 0-1.413.325-1.884.928-.472.603-.66 1.485-.66 2.552 0 1.068.236 1.903.66 2.506a2.101 2.101 0 0 0 1.79.928c1.084 0 1.79-.557 2.12-1.67l2.545.742c-.706 2.274-2.262 3.388-4.665 3.388"/>
        </g>
    </g>
</svg>
