<?xml version="1.0" encoding="utf-8"?>
<!-- Generator: Adobe Illustrator 19.0.0, SVG Export Plug-In . SVG Version: 6.00 Build 0)  -->
<svg version="1.1" id="Layer_1" xmlns="http://www.w3.org/2000/svg" xmlns:xlink="http://www.w3.org/1999/xlink" x="0px" y="0px"
	 viewBox="-288 358 35 56" style="enable-background:new -288 358 35 56;" xml:space="preserve">
<style type="text/css">
	.st0{fill:none;stroke:#373A36;stroke-width:3;}
	.st1{fill:#373A36;}
</style>
<g>
	<path class="st0" d="M-270.5,359.5L-270.5,359.5c8.8,0,16,7.2,16,16v21c0,8.8-7.2,16-16,16l0,0c-8.8,0-16-7.2-16-16v-21
		C-286.5,366.7-279.3,359.5-270.5,359.5z"/>
	<path class="st1" d="M-270,369L-270,369c1.1,0,2,0.9,2,2v6c0,1.1-0.9,2-2,2l0,0c-1.1,0-2-0.9-2-2v-6C-272,369.9-271.1,369-270,369z
		"/>
</g>
</svg>
