<?xml version="1.0" encoding="utf-8"?>
<!-- Generator: Adobe Illustrator 19.0.0, SVG Export Plug-In . SVG Version: 6.00 Build 0)  -->
<svg version="1.1" id="Layer_1" xmlns="http://www.w3.org/2000/svg" xmlns:xlink="http://www.w3.org/1999/xlink" x="0px" y="0px"
	 viewBox="-284.4 419.6 27 15" style="enable-background:new -284.4 419.6 27 15;" xml:space="preserve">
<style type="text/css">
	.st0{fill:#373A36;}
</style>
<g>
	<g transform="translate(3 61)">
		<path class="st0" d="M-286.9,359.1L-286.9,359.1c0.6-0.6,1.5-0.6,2.1,0l12,12c0.6,0.6,0.6,1.5,0,2.1l0,0c-0.6,0.6-1.5,0.6-2.1,0
			l-12-12C-287.5,360.6-287.5,359.6-286.9,359.1z"/>
		<path class="st0" d="M-260.8,359.1L-260.8,359.1c0.6,0.6,0.6,1.5,0,2.1l-12,12c-0.6,0.6-1.5,0.6-2.1,0l0,0c-0.6-0.6-0.6-1.5,0-2.1
			l12-12C-262.3,358.5-261.4,358.5-260.8,359.1z"/>
	</g>
</g>
</svg>
